<svg xmlns="http://www.w3.org/2000/svg" xmlns:xlink="http://www.w3.org/1999/xlink" width="48" height="48" viewBox="0 0 48 48"><defs><linearGradient id="a" x1="0.5" y1="3.494" x2="0.5" y2="-8.249" gradientUnits="objectBoundingBox"><stop offset="0" stop-color="#00efd1"/><stop offset="1" stop-color="#00acea"/></linearGradient><linearGradient id="b" x1="0.5" y1="5.436" x2="0.5" y2="-6.308" xlink:href="#a"/><linearGradient id="c" x1="0.5" y1="6.601" x2="0.5" y2="-5.143" xlink:href="#a"/><linearGradient id="d" x1="0.5" y1="6.94" x2="0.5" y2="-0.888" xlink:href="#a"/><linearGradient id="e" x1="0.5" y1="3.057" x2="0.5" y2="-4.772" xlink:href="#a"/><linearGradient id="f" x1="0.5" y1="5.36" x2="0.5" y2="-3.18" xlink:href="#a"/><linearGradient id="g" x1="0.5" y1="1.046" x2="0.5" y2="-0.02" xlink:href="#a"/></defs><g transform="translate(0 0)"><path d="M248.806,331.127c-2.746,0-2.746,4.356,0,4.356A2.178,2.178,0,0,0,248.806,331.127Z" transform="translate(-220.688 -296.156)" fill="url(#a)"/><g transform="translate(0 0)"><path d="M347.136,251.065a2.178,2.178,0,0,0,0,4.356A2.178,2.178,0,0,0,347.136,251.065Z" transform="translate(-308.561 -224.55)" fill="url(#b)"/><path d="M216.806,203.017c-2.746,0-2.746,4.356,0,4.356A2.178,2.178,0,0,0,216.806,203.017Z" transform="translate(-192.067 -181.576)" fill="url(#c)"/><path d="M178.415,45.883c-4.224,0-4.224,6.534,0,6.534S182.64,45.883,178.415,45.883Z" transform="translate(-156.739 -41.037)" fill="url(#d)"/><path d="M117.086,286.121c-4.119,0-4.119,6.533,0,6.533C121.311,292.654,121.311,286.121,117.086,286.121Z" transform="translate(-101.958 -255.903)" fill="url(#e)"/><path d="M87.1,171.26c-3.8,0-3.8,5.989,0,5.989,3.908,0,3.908-5.989,0-5.989Z" transform="translate(-75.35 -153.173)" fill="url(#f)"/><path d="M46.7,20.618c-.03,0-.061,0-.092,0a6.035,6.035,0,0,1-4.093-1.592,1.091,1.091,0,0,0-1.167-.2,7.273,7.273,0,0,1-2.9.586,7.4,7.4,0,0,1-6.9-10.1,1.089,1.089,0,0,0-.271-1.187A5.054,5.054,0,0,1,29.673,4.4a5.155,5.155,0,0,1,.519-2.251A1.089,1.089,0,0,0,29.458.622,24,24,0,1,0,48,24c0-.784-.038-1.591-.114-2.4a1.12,1.12,0,0,0-1.182-.983ZM24,45.822A21.822,21.822,0,1,1,24,2.178a22.06,22.06,0,0,1,3.749.318,7.3,7.3,0,0,0,1.543,6.7A9.594,9.594,0,0,0,41.574,21.077a8.194,8.194,0,0,0,4.214,1.679c.023.419.034.835.034,1.244A21.846,21.846,0,0,1,24,45.822Z" transform="translate(0 0)" fill="url(#g)"/></g></g></svg>