<?xml version="1.0" encoding="iso-8859-1"?>
<!-- Generator: Adobe Illustrator 19.0.0, SVG Export Plug-In . SVG Version: 6.00 Build 0)  -->
<svg version="1.1" id="Capa_1" xmlns="http://www.w3.org/2000/svg" xmlns:xlink="http://www.w3.org/1999/xlink" x="0px" y="0px"
	 viewBox="0 0 454.494 454.494" style="enable-background:new 0 0 454.494 454.494;" xml:space="preserve">
<linearGradient id="SVGID_1_" gradientUnits="userSpaceOnUse" x1="266.6221" y1="475.2472" x2="266.6221" y2="-9.0828" gradientTransform="matrix(1 0 0 -1 0 456.4943)">
	<stop  offset="0" style="stop-color:#00EFD1"/>
	<stop  offset="1" style="stop-color:#00ACEA"/>
</linearGradient>
<path style="fill:url(#SVGID_1_);" d="M266.247,331.127c-26,0-26,41.242,0,41.242C293.247,372.369,293.247,331.127,266.247,331.127z
	"/>
<g>
	
		<linearGradient id="SVGID_2_" gradientUnits="userSpaceOnUse" x1="365.2471" y1="475.2472" x2="365.2471" y2="-9.0828" gradientTransform="matrix(1 0 0 -1 0 456.4943)">
		<stop  offset="0" style="stop-color:#00EFD1"/>
		<stop  offset="1" style="stop-color:#00ACEA"/>
	</linearGradient>
	<path style="fill:url(#SVGID_2_);" d="M365.247,251.065c-27,0-27,41.242,0,41.242S392.247,251.065,365.247,251.065z"/>
	
		<linearGradient id="SVGID_3_" gradientUnits="userSpaceOnUse" x1="234.6221" y1="475.2472" x2="234.6221" y2="-9.0828" gradientTransform="matrix(1 0 0 -1 0 456.4943)">
		<stop  offset="0" style="stop-color:#00EFD1"/>
		<stop  offset="1" style="stop-color:#00ACEA"/>
	</linearGradient>
	<path style="fill:url(#SVGID_3_);" d="M234.247,203.017c-26,0-26,41.243,0,41.243C261.247,244.26,261.247,203.017,234.247,203.017z
		"/>
	
		<linearGradient id="SVGID_4_" gradientUnits="userSpaceOnUse" x1="205.2471" y1="475.2472" x2="205.2471" y2="-9.0828" gradientTransform="matrix(1 0 0 -1 0 456.4943)">
		<stop  offset="0" style="stop-color:#00EFD1"/>
		<stop  offset="1" style="stop-color:#00ACEA"/>
	</linearGradient>
	<path style="fill:url(#SVGID_4_);" d="M205.247,45.883c-40,0-40,61.864,0,61.864S245.247,45.883,205.247,45.883z"/>
	
		<linearGradient id="SVGID_5_" gradientUnits="userSpaceOnUse" x1="143.6221" y1="475.2472" x2="143.6221" y2="-9.0828" gradientTransform="matrix(1 0 0 -1 0 456.4943)">
		<stop  offset="0" style="stop-color:#00EFD1"/>
		<stop  offset="1" style="stop-color:#00ACEA"/>
	</linearGradient>
	<path style="fill:url(#SVGID_5_);" d="M143.247,286.121c-39,0-39,61.863,0,61.863C183.247,347.984,183.247,286.121,143.247,286.121
		z"/>
	
		<linearGradient id="SVGID_6_" gradientUnits="userSpaceOnUse" x1="111.6221" y1="475.2472" x2="111.6221" y2="-9.0828" gradientTransform="matrix(1 0 0 -1 0 456.4943)">
		<stop  offset="0" style="stop-color:#00EFD1"/>
		<stop  offset="1" style="stop-color:#00ACEA"/>
	</linearGradient>
	<path style="fill:url(#SVGID_6_);" d="M111.247,171.26c-36,0-36,56.709,0,56.709C148.247,227.969,148.247,171.26,111.247,171.26
		L111.247,171.26z"/>
	
		<linearGradient id="SVGID_7_" gradientUnits="userSpaceOnUse" x1="227.2471" y1="475.2472" x2="227.2471" y2="-9.0828" gradientTransform="matrix(1 0 0 -1 0 456.4943)">
		<stop  offset="0" style="stop-color:#00EFD1"/>
		<stop  offset="1" style="stop-color:#00ACEA"/>
	</linearGradient>
	<path style="fill:url(#SVGID_7_);" d="M442.22,195.223c-0.283,0.022-0.579,0.01-0.871,0.01
		c-14.353,0.022-28.189-5.358-38.756-15.071c-2.995-2.742-7.318-3.475-11.05-1.875c-8.665,3.708-17.998,5.598-27.423,5.553
		c-38.71,0.039-70.122-31.309-70.161-70.019c-0.009-8.763,1.625-17.449,4.818-25.609c1.514-3.919,0.499-8.366-2.567-11.239
		c-9.785-9.11-15.313-21.898-15.245-35.267c0.005-7.384,1.685-14.67,4.914-21.311c2.466-5.134,0.303-11.295-4.831-13.761
		c-0.676-0.325-1.386-0.575-2.117-0.746C261.985,1.956,244.644-0.02,227.247,0C101.947,0,0,101.947,0,227.247
		s101.947,227.247,227.247,227.247s227.247-101.947,227.247-227.247c0-7.426-0.363-15.068-1.078-22.716
		C452.742,198.951,447.83,194.867,442.22,195.223L442.22,195.223z M227.247,433.872c-113.936,0-206.625-92.692-206.625-206.625
		S113.311,20.622,227.247,20.622c11.898-0.008,23.774,1.001,35.5,3.015c-6.028,22.27-0.548,46.079,14.61,63.473
		c-14.639,47.989,12.396,98.758,60.384,113.398c18.27,5.573,37.832,5.246,55.906-0.936c11.539,8.947,25.369,14.456,39.9,15.894
		c0.217,3.972,0.322,7.909,0.322,11.781C433.872,341.18,341.183,433.872,227.247,433.872z"/>
</g>
<g>
</g>
<g>
</g>
<g>
</g>
<g>
</g>
<g>
</g>
<g>
</g>
<g>
</g>
<g>
</g>
<g>
</g>
<g>
</g>
<g>
</g>
<g>
</g>
<g>
</g>
<g>
</g>
<g>
</g>
</svg>
