<svg xmlns="http://www.w3.org/2000/svg" xmlns:xlink="http://www.w3.org/1999/xlink" width="952" height="398" viewBox="0 0 952 398"><defs><linearGradient id="a" x1="-0.174" y1="-0.323" x2="1.15" y2="1.331" gradientUnits="objectBoundingBox"><stop offset="0" stop-color="#5ad9ff"/><stop offset="1" stop-color="#0779ff"/></linearGradient><linearGradient id="b" x1="0.5" y1="3.494" x2="0.5" y2="-8.249" gradientUnits="objectBoundingBox"><stop offset="0" stop-color="#fff"/><stop offset="1" stop-color="#00acea"/></linearGradient><clipPath id="j"><rect width="952" height="398"/></clipPath></defs><g id="i" clip-path="url(#j)"><rect width="952" height="398" fill="url(#a)"/><g transform="translate(415.576 138.576)"><path d="M251.953,331.127c-6.942,0-6.942,11.011,0,11.011C259.162,342.138,259.162,331.127,251.953,331.127Z" transform="translate(-180.87 -242.722)" fill="url(#b)"/><g transform="translate(0 0)"><path d="M350.4,251.065c-7.208,0-7.208,11.011,0,11.011S357.612,251.065,350.4,251.065Z" transform="translate(-252.889 -184.035)" fill="url(#b)"/><path d="M219.953,203.017c-6.942,0-6.942,11.011,0,11.011C227.162,214.028,227.162,203.017,219.953,203.017Z" transform="translate(-157.413 -148.815)" fill="url(#b)"/><path d="M183.256,45.883c-10.679,0-10.679,16.517,0,16.517S193.936,45.883,183.256,45.883Z" transform="translate(-128.459 -33.633)" fill="url(#b)"/><path d="M121.806,286.121c-10.412,0-10.412,16.516,0,16.516C132.486,302.637,132.486,286.121,121.806,286.121Z" transform="translate(-83.562 -209.732)" fill="url(#b)"/><path d="M91.456,171.26c-9.611,0-9.611,15.14,0,15.14,9.878,0,9.878-15.14,0-15.14Z" transform="translate(-61.755 -125.537)" fill="url(#b)"/><path d="M118.065,52.121c-.076.006-.155,0-.233,0A15.255,15.255,0,0,1,107.485,48.1a2.759,2.759,0,0,0-2.95-.5,18.386,18.386,0,0,1-7.321,1.483A18.713,18.713,0,0,1,79.768,23.551a2.753,2.753,0,0,0-.685-3,12.776,12.776,0,0,1-4.07-9.416,13.031,13.031,0,0,1,1.312-5.69A2.753,2.753,0,0,0,74.47,1.572a60.681,60.681,0,1,0,46.872,59.1c0-1.983-.1-4.023-.288-6.065a2.83,2.83,0,0,0-2.989-2.485ZM60.671,115.836a55.165,55.165,0,1,1,0-110.331,55.768,55.768,0,0,1,9.478.8,18.454,18.454,0,0,0,3.9,16.946A24.254,24.254,0,0,0,105.1,53.282a20.714,20.714,0,0,0,10.653,4.243c.058,1.06.086,2.112.086,3.145A55.226,55.226,0,0,1,60.671,115.836Z" transform="translate(0 0)" fill="url(#b)"/></g></g></g></svg>